<svg width="54" height="54" viewBox="0 0 54 54" fill="none" xmlns="http://www.w3.org/2000/svg">
<path d="M27 0C19.6611 0 18.7465 0.0354375 15.8744 0.156937C12.9904 0.298687 11.0397 0.745875 9.31842 1.41412C7.51695 2.09422 5.88548 3.15903 4.53773 4.53431C3.15861 5.87891 2.09321 7.51129 1.41754 9.315C0.749293 11.0362 0.302105 12.987 0.160355 15.8709C0.030418 18.7447 0.00341797 19.6577 0.00341797 26.9966C0.00341797 34.3356 0.0388555 35.2502 0.160355 38.1223C0.302105 40.9978 0.749293 42.957 1.41754 44.6782C2.09764 46.4797 3.16244 48.1112 4.53773 49.4589C5.88233 50.8381 7.5147 51.9035 9.31842 52.5791C11.0397 53.2389 12.9989 53.6946 15.8744 53.8363C18.7482 53.9662 19.6611 53.9932 27 53.9932C34.339 53.9932 35.2536 53.9578 38.1257 53.8363C41.0012 53.6946 42.9604 53.2372 44.6817 52.5791C46.4831 51.899 48.1146 50.8342 49.4624 49.4589C50.8433 48.1158 51.9089 46.483 52.5825 44.6782C53.2424 42.957 53.698 40.9978 53.8397 38.1223C53.9697 35.2485 53.9967 34.3356 53.9967 26.9966C53.9967 19.6577 53.9612 18.7431 53.8397 15.8709C53.698 12.9954 53.2407 11.0261 52.5825 9.315C51.9024 7.51353 50.8376 5.88206 49.4624 4.53431C48.1192 3.15341 46.4864 2.08774 44.6817 1.41412C42.9604 0.745875 41.0012 0.298687 38.1257 0.156937C35.2519 0.027 34.339 0 27 0ZM27 4.86C34.2074 4.86 35.068 4.89544 37.9165 5.01694C40.5439 5.14012 41.9749 5.57887 42.925 5.95012C44.0995 6.38368 45.1626 7.07375 46.0367 7.97006C46.9315 8.84052 47.619 9.90115 48.0482 11.0734C48.4195 12.0234 48.8582 13.4544 48.9814 16.0819C49.1029 18.9304 49.1384 19.7927 49.1384 26.9983C49.1384 34.2039 49.1029 35.0662 48.9713 37.9147C48.8295 40.5422 48.3908 41.9732 48.0212 42.9232C47.5099 44.1906 46.9395 45.0765 45.9979 46.035C45.1208 46.9257 44.0584 47.6124 42.8862 48.0465C41.9479 48.4177 40.4967 48.8565 37.8591 48.9797C34.9954 49.1012 34.1517 49.1366 26.9258 49.1366C19.6999 49.1366 18.8579 49.1012 15.9908 48.9696C13.3634 48.8278 11.9138 48.3891 10.9637 48.0195C9.68123 47.5082 8.80204 46.9378 7.86042 45.9962C6.91036 45.0461 6.30623 44.1416 5.84048 42.8844C5.46248 41.9462 5.03048 40.4949 4.89042 37.8574C4.79423 35.0274 4.74867 34.1499 4.74867 26.9578C4.74867 19.7691 4.79423 18.8899 4.89042 16.0245C5.03048 13.3869 5.46248 11.9391 5.84048 10.9974C6.30623 9.71325 6.91204 8.83575 7.86042 7.88569C8.80036 6.94575 9.68123 6.33825 10.9637 5.86237C11.9138 5.49281 13.3279 5.05406 15.9655 4.92244C18.8292 4.8195 19.6729 4.78237 26.8887 4.78237L27 4.86ZM27 13.1406C25.1798 13.1399 23.3773 13.4979 21.6955 14.1942C20.0137 14.8905 18.4856 15.9113 17.1985 17.1984C15.9114 18.4855 14.8905 20.0136 14.1942 21.6954C13.498 23.3772 13.1399 25.1798 13.1406 27C13.1399 28.8202 13.498 30.6228 14.1942 32.3046C14.8905 33.9864 15.9114 35.5145 17.1985 36.8016C18.4856 38.0887 20.0137 39.1095 21.6955 39.8058C23.3773 40.5021 25.1798 40.8601 27 40.8594C28.8203 40.8601 30.6228 40.5021 32.3046 39.8058C33.9864 39.1095 35.5145 38.0887 36.8016 36.8016C38.0887 35.5145 39.1096 33.9864 39.8058 32.3046C40.5021 30.6228 40.8601 28.8202 40.8595 27C40.8601 25.1798 40.5021 23.3772 39.8058 21.6954C39.1096 20.0136 38.0887 18.4855 36.8016 17.1984C35.5145 15.9113 33.9864 14.8905 32.3046 14.1942C30.6228 13.4979 28.8203 13.1399 27 13.1406ZM27 35.9994C22.0253 35.9994 18.0006 31.9747 18.0006 27C18.0006 22.0252 22.0253 18.0006 27 18.0006C31.9748 18.0006 35.9995 22.0252 35.9995 27C35.9995 31.9747 31.9748 35.9994 27 35.9994ZM44.658 12.5871C44.6571 13.4471 44.3149 14.2716 43.7064 14.8795C43.0979 15.4873 42.273 15.8287 41.413 15.8287C40.9877 15.8287 40.5666 15.745 40.1737 15.5822C39.7808 15.4195 39.4239 15.181 39.1231 14.8803C38.8224 14.5796 38.5839 14.2226 38.4212 13.8297C38.2584 13.4368 38.1747 13.0157 38.1747 12.5904C38.1747 12.1652 38.2584 11.7441 38.4212 11.3512C38.5839 10.9583 38.8224 10.6013 39.1231 10.3006C39.4239 9.9999 39.7808 9.76137 40.1737 9.59863C40.5666 9.43589 40.9877 9.35212 41.413 9.35212C43.1967 9.35212 44.658 10.8034 44.658 12.5871Z" fill="white"/>
</svg>
