<svg width="53" height="53" viewBox="0 0 53 53" fill="none" xmlns="http://www.w3.org/2000/svg">
<path d="M26.5 0.25C12.01 0.25 0.25 12.01 0.25 26.5C0.25 40.99 12.01 52.75 26.5 52.75H39.625V47.5H26.5C15.1075 47.5 5.5 37.8925 5.5 26.5C5.5 15.1075 15.1075 5.5 26.5 5.5C37.8925 5.5 47.5 15.1075 47.5 26.5V30.2537C47.5 32.3275 45.6362 34.375 43.5625 34.375C41.4888 34.375 39.625 32.3275 39.625 30.2537V26.5C39.625 19.255 33.745 13.375 26.5 13.375C19.255 13.375 13.375 19.255 13.375 26.5C13.375 33.745 19.255 39.625 26.5 39.625C30.1225 39.625 33.43 38.155 35.7925 35.7663C37.4987 38.1025 40.4388 39.625 43.5625 39.625C48.7337 39.625 52.75 35.425 52.75 30.2537V26.5C52.75 12.01 40.99 0.25 26.5 0.25ZM26.5 34.375C22.1425 34.375 18.625 30.8575 18.625 26.5C18.625 22.1425 22.1425 18.625 26.5 18.625C30.8575 18.625 34.375 22.1425 34.375 26.5C34.375 30.8575 30.8575 34.375 26.5 34.375Z" fill="white"/>
</svg>
